<svg xmlns="http://www.w3.org/2000/svg" viewBox="0 0 299.71 38.81"><defs><style>.cls-1{fill:#bb0f1f;}</style></defs><path class="cls-1" d="M29.1.93,19,27.77,9.51.93H2.78L0,38.06H5.73l1.68-27,9.31,27h4L31,10.51l1.56,27.55h5.94L36,.93Zm150.53,0L169.5,27.77,160,.93h-6.73l-2.78,37.13h5.73l1.68-27,9.31,27h4l10.26-27.55L183,38.06H189L186.49.93ZM55.57,16.84,47.27.93H40.36l12,21.66V38.06H58.3V22.67L70.79.93H64Zm53.3,14.64s-4.15,2-11.69.86A10.34,10.34,0,0,1,90,26.12c-1.89-4.25-1.91-10,0-13.27,2.66-4.73,7.26-9.67,19.27-6l.49.15,1.49-5.3-.49-.13C103.44-.33,93.22-.82,86,7.74c-4,4.69-4.93,13-2.31,19.81,2.31,6,6.87,9.72,12.84,10.51a32.69,32.69,0,0,0,4.38.3,27.89,27.89,0,0,0,9.9-1.65l.44-.18-1.86-5.3Zm21-31c-10.39,0-17.37,7.62-17.37,19,0,11.62,7,19.42,17.37,19.42,8.36,0,16.82-6.59,16.82-19.19C146.66,10.77,142.25.43,129.84.43Zm10.69,19.19c0,5.8-3.4,14-11,14C124.34,33.59,118.7,29,118.7,19c0-6.53,4.46-13.8,10.87-13.8C138.22,5.17,140.53,14.25,140.53,19.62ZM216.15,4.31c-6-5.92-19.91-3.48-20.5-3.37l-.41.08V38.07h5.6V23.62A35,35,0,0,0,212,22.37c3-.95,5.78-4.35,6.72-8.26a10,10,0,0,0-2.56-9.8Zm-3.52,7.55a5.41,5.41,0,0,1-1.83,4.31c-2.93,2.55-8.55,2.21-10.15,2V5.5c1.59-.16,7.21-.5,10.14,2.05a5.41,5.41,0,0,1,1.84,4.31ZM228.69.93,215.74,38.06h6.59L226,26.71H237.9l3.76,11.35H248L235.21.93Zm7.47,20.55h-8.49l4.18-13Zm30.27-3.82c-.36-.18-.78-.37-1.23-.58-2.88-1.35-7.24-3.38-8-6.23a4,4,0,0,1,.73-3.42C261,2.68,269.58,6.91,269.67,7l.49.25,1.95-4.92-.45-.19c-3-1.23-10.82-4.48-17.26.91a8.84,8.84,0,0,0-3.34,8.29,11.16,11.16,0,0,0,6.67,8.38c5.4,2.27,8.45,4.59,9.34,7.09a5,5,0,0,1-.42,4.1c-3.8,4.81-14,.45-14.13.4l-.45-.2L249.83,36l.42.22a24.47,24.47,0,0,0,10.36,2.56,14.82,14.82,0,0,0,8.72-2.64c3-3,4.34-6.51,3.78-10a11.84,11.84,0,0,0-6.68-8.46Zm33.16,8.47a11.78,11.78,0,0,0-6.67-8.46c-.36-.18-.78-.37-1.23-.58-2.88-1.35-7.24-3.38-8-6.22a4,4,0,0,1,.73-3.42c3.13-4.75,11.69-.52,11.78-.47l.49.25,2-4.92-.45-.19c-3-1.23-10.82-4.49-17.26.91a8.84,8.84,0,0,0-3.34,8.29,11.16,11.16,0,0,0,6.67,8.38c5.4,2.27,8.45,4.59,9.34,7.09a5,5,0,0,1-.42,4.1c-3.8,4.82-14,.45-14.13.4l-.45-.2L276.32,36l.42.22a24.47,24.47,0,0,0,10.36,2.56,14.82,14.82,0,0,0,8.72-2.64C298.81,33.17,300.15,29.62,299.59,26.13Z"/></svg>